<svg width="600" height="630" viewBox="0 0 600 630" fill="none" xmlns="http://www.w3.org/2000/svg">
<path d="M319.975 39.5L346.975 87.5C346.975 87.5 357.284 102.896 367 109C372.255 112.301 372.138 113.894 377.975 116C385.37 118.668 387.683 120.16 395.5 121C401.324 121.626 417 123 417 123H412.5C412.5 123 400.258 123.907 392.5 123C384.315 122.043 372 118 372 118C372 118 378.198 123.018 382.5 124.5L393.5 127L405.5 128.5H395.5C395.5 128.5 389.082 127.702 385 127C381.075 126.325 375 125 375 125C375 125 385.415 130.496 392.5 133C396.344 134.359 398.54 135.031 402.5 136C408.268 137.412 417.5 138.5 417.5 138.5C417.5 138.5 408.938 138.191 403.5 137.5C398.978 136.925 396.435 136.554 392 135.5C386.404 134.17 377.975 131 377.975 131L397 139.5C397 139.5 403.64 141.853 408 143C414.148 144.617 424 146 424 146C424 146 416.039 145.729 411 145C407.854 144.545 406.103 144.187 403 143.5C396.846 142.137 387.5 139 387.5 139L398 144C398 144 403.917 146.989 408 148C410.306 148.571 411.642 148.713 414 149C417.688 149.449 423.5 149.5 423.5 149.5L414.5 150C414.5 150 410.508 149.936 408 149.5C405.199 149.014 401 147.5 401 147.5L392.868 145.5C392.868 145.5 401.38 149.132 407 151L407.203 151.067C409.598 151.864 411.004 152.332 413.5 153C418.494 154.337 426.5 155.5 426.5 155.5C426.5 155.5 418.809 155.427 414 154.5C411.628 154.043 410.346 153.576 408 153C403.907 151.994 397.5 150.5 397.5 150.5C397.5 150.5 404.927 154.606 410 156.5C413.066 157.645 414.812 158.257 418 159C420.126 159.496 421.336 159.711 423.5 160C427.182 160.492 433 160.5 433 160.5C433 160.5 428.435 161.03 425.5 161C422.954 160.974 421.508 160.936 419 160.5C416.199 160.014 414.729 159.299 412 158.5C407.495 157.181 400.5 155 400.5 155C400.5 155 406.447 159.205 410.5 161.5C413.919 163.436 419.5 166 419.5 166C419.5 166 425.507 168.679 429.5 170C432.199 170.893 433.746 171.293 436.5 172C439.023 172.648 443 173.5 443 173.5L435.5 172.5L429.5 171L420 168.5L406.5 164.5C406.5 164.5 413.1 168.075 417.5 170C422.086 172.006 424.767 172.873 429.5 174.5C437.389 177.211 450 180.5 450 180.5C450 180.5 437.112 178.132 429 176C424.279 174.759 421.64 174.017 417 172.5C413.654 171.406 408.5 169.5 408.5 169.5C408.5 169.5 413.833 173.125 417.5 175C421.084 176.833 423.22 177.616 427 179C431.408 180.614 438.5 182.5 438.5 182.5C438.5 182.5 442.137 183.5 444.5 184C448.363 184.817 454.5 185.5 454.5 185.5C454.5 185.5 448.706 185.669 445 185.5C442.457 185.384 441.028 185.302 438.5 185C435.153 184.6 430 183.5 430 183.5L443.5 188.5C443.5 188.5 451.349 190.715 456.5 191.5C461.149 192.209 468.5 192.5 468.5 192.5C468.5 192.5 463.337 193.317 460 193.5C457.075 193.66 455.421 193.718 452.5 193.5C449.77 193.296 445.922 192.52 444.286 192.171C446.879 192.74 455.326 194.62 461 196.185C464.73 197.214 466.963 197.431 470.5 199C472.736 199.992 473.686 201.207 476 202C478.43 202.833 482.5 203 482.5 203C482.5 203 478.469 203.12 476 202.5C473.289 201.819 472.155 200.376 469.5 199.5C466.664 198.564 464.952 198.455 462 198C457.352 197.283 450 197 450 197C450 197 459.006 198.195 464.5 200C468.738 201.393 470.699 203.314 475 204.5C478.807 205.55 481.15 205.122 485 206C487.772 206.632 492 208 492 208L499.5 210L490 208.5C490 208.5 485.754 207.48 483 207C479.704 206.426 477.722 206.822 474.5 205.92C472.067 205.239 468.5 203.5 468.5 203.5L464 202C464 202 470.73 206.296 475.5 208C479.648 209.482 482.262 209.298 486.5 210.5C492.502 212.203 501.5 216 501.5 216C501.5 216 492.143 212.911 486 211.5C481.932 210.565 479.511 210.657 475.5 209.5C473.72 208.987 471 208 471 208C471 208 474.866 210.328 477.5 211.5C480.885 213.006 486.5 214.5 486.5 214.5C486.5 214.5 493.087 217.31 497.5 218.5C500.199 219.228 504.5 220 504.5 220L496.5 219C496.5 219 491.651 217.385 488.5 216.5C485.4 215.63 483.557 215.513 480.5 214.5C478.916 213.975 476.5 213 476.5 213C476.5 213 480.34 215.655 483 217C487.243 219.146 490.21 218.95 494.5 221C497.341 222.357 498.659 223.643 501.5 225C505.068 226.704 511 228.5 511 228.5C511 228.5 505.074 227.395 501.5 226C498.653 224.889 497.395 223.48 494.5 222.5C491.307 221.42 486 221 486 221C486 221 499.7 226.355 507.5 231.5C515.244 236.608 525.5 247 525.5 247C525.5 247 516.018 238.773 509 235C504.687 232.681 497.5 230 497.5 230L540.5 264L501.5 237L549 276.5L521 257L560.5 288L536.5 272L566.975 297L544 281.5L582 312.5L552 291.5L584 324L553.5 300L595 345L560.5 312.5L597.5 358L566.975 328L600 372L572 343L597.5 386L574.975 356.5L593 396.5L573.5 369L590.5 410.5L578.5 389L593 433L581 406L590.5 453.5L582 427L587.5 475L581 447.5L586.5 497L581 473L586.5 520L579.5 496L581 534.5L577 518L571 545L569.5 533L555 555.5L559 542.5L534 567L548.5 547.5L519.975 575L539 551.5L507.5 578.5L533.5 552.5L501.5 580L519.975 561L486.5 588.5L507.5 567L473.5 596L492 575L456 600.5L473.5 584L437.5 607L459 589.5L418.5 616.5L443 596L403 621.5L429 600.5L387.5 623L418.5 600.5L375.5 624L406 603L365 621.5L397 603L357.5 616.5L387.5 603L350 615L394 594L309.5 629.5L386 594L328 615L374 594L320.5 615L356 597.5L302 619.5L353 594L289.5 619.5L337.5 597.5L279 619.5L328 597.5L269.5 619.5L328 591.5L266 617.5L317.5 591.5L257 616.5L309.5 589.5C309.5 589.5 278.908 600.06 260 608.5C244.45 615.44 221 628 221 628C221 628 242.579 614.546 257 607C274.111 598.047 302 586.5 302 586.5L242.5 610.5L293 586.5L235 610.5L284 586.5L199 624L276.5 586.5L221 609L269.5 584L202 616.5L264 582C264 582 237.515 594.253 221 603C206.318 610.776 184 624 184 624C184 624 203.119 610.582 216 603C231.503 593.874 257 582 257 582C257 582 228.345 593.56 211 603C195.82 611.262 173.5 626.5 173.5 626.5C173.5 626.5 193.132 612.036 206.5 604C221.021 595.271 245 584 245 584C245 584 218.327 595.257 202 604C189.188 610.861 170 623 170 623C170 623 184.847 611.74 195 605.5C206.18 598.628 223.447 590.602 229.927 587.658L207.5 597.75C207.5 597.75 191.456 603.134 182.5 609C175.431 613.63 166 623 166 623C166 623 173.792 612.11 180.5 607C186.96 602.078 199 597.5 199 597.5L232.5 582C232.5 582 206.703 589.634 191.5 597.5C182.785 602.009 177.726 604.452 170 610.5C164.994 614.418 158 621.5 158 621.5C158 621.5 164.139 613.319 169 609C175.236 603.46 179.806 601.722 187 597.5C202.516 588.394 228.5 577.5 228.5 577.5C228.5 577.5 196.436 587.716 178 598.5C165.794 605.64 148.5 619.5 148.5 619.5C148.5 619.5 162.77 604.848 173.5 597.5C186.372 588.685 208.001 580.896 215.415 578.363C207.62 581.004 183.961 589.292 169 597.5C156.512 604.351 138.5 617.5 138.5 617.5C138.5 617.5 153.448 604.487 164 597.5C181.548 585.88 212.5 574 212.5 574C212.5 574 185.866 583.107 170 591.5C154.291 599.81 131.976 616.5 131.976 616.5C131.976 616.5 154.322 598.767 170 589.5C183.156 581.724 205 572 205 572C205 572 177.746 581.053 161.5 589.5C153.893 593.455 149.421 595.439 142.5 600.5C135.693 605.478 126.5 615 126.5 615C126.5 615 134.903 605.692 141 600.5C146.531 595.791 149.902 593.447 156 589.5C171.48 579.482 199 570 199 570L176.5 577.5C176.5 577.5 159.021 583.946 148.5 589.5C134.324 596.984 114.5 612.5 114.5 612.5C114.5 612.5 135.298 595.396 150 586.5C163.448 578.363 186 568.5 186 568.5L145 584C145 584 133.561 589.806 126.5 594C116.582 599.891 102 610.5 102 610.5C102 610.5 116.17 597.815 126.5 591.5C133.429 587.264 145 582 145 582L187 564C187 564 156.232 570.87 138.5 580C129.299 584.737 124.433 588.001 116 594C109.316 598.755 99.5 607 99.5 607C99.5 607 107.659 598.643 113.5 594C121.472 587.663 126.627 584.998 135.5 580C151.495 570.989 178.5 561 178.5 561L140 574.5L114.5 586.5L86 604L113.5 585L135.5 574L170 561L126.5 576.5C126.5 576.5 109.242 583.015 99.5 589.5C92.5694 594.113 83 603 83 603C83 603 91.2864 594.11 97.5 589.5C106.338 582.943 122.5 576.5 122.5 576.5L165 558.5C165 558.5 135.059 565.491 117.5 574C110.264 577.507 106.317 579.735 99.5 584C91.7833 588.827 80.5 597.5 80.5 597.5C80.5 597.5 89.3907 588.578 95.9755 584C102.725 579.307 107.134 577.651 114.5 574C130.906 565.868 158 556.5 158 556.5L116 570C116 570 104.385 573.843 97.5 577.5C87.8773 582.612 75 594 75 594C75 594 86.0052 582.73 94.5 577.5C100.226 573.975 110 570 110 570L154.5 553L114.5 564C114.5 564 103.006 568.441 95.9755 572C84.6255 577.746 68.5 589.5 68.5 589.5C68.5 589.5 84.4129 576.279 95.9755 570C103.501 565.913 116 561.065 116 561.065L152 549.5L91.5 565.5C91.5 565.5 79.3699 569.655 72.5 574C66.7525 577.635 59 585 59 585C59 585 65.5326 577.735 70.5 574C77.202 568.961 89.5 564 89.5 564L147.5 547.5L87.5 561.065C87.5 561.065 66.6883 566.02 54.5 572C48.8468 574.774 40.5 580 40.5 580C40.5 580 48.6222 573.255 54.5 570C64.7107 564.346 83 561 83 561L145 544.5L97.5 553C97.5 553 76.8692 557.77 64 562C46.5344 567.74 34.5 580 34.5 580C34.5 580 43.5036 567.944 59 562C73.119 556.584 95.9755 550.5 95.9755 550.5L142.5 540.5L75 554C75 554 52.5739 556.613 38.9269 561.065C27.1627 564.904 24 574 24 574C24 574 25.2052 565.892 35.5 562C47.9949 557.276 68.5 553 68.5 553L130.5 538C130.5 538 92.5322 544.127 68.5 549.5C54.1727 552.703 45.9709 553.989 32 558.5C20.2332 562.299 16.5 570 16.5 570C16.5 570 18.7586 562.496 29.5 558.5C43.2779 553.374 51.3475 551.476 65.5 547.5C74.7097 544.912 85.6967 542.2 96.3156 539.722L31 554L127.5 529L40.5 550.5L127.5 524.5L34.5 547.5L130.5 520L34.5 544.5L121 518L16.5 546L114.5 515.5L10 544.5L114.5 511.5L56.5 522.5L10 540.5L54.5 521.5L110 508.5C110 508.5 78.6683 513.142 59 518C51.4745 519.859 44.225 522.49 37.91 525.168C32.7029 528.489 27.9059 531.749 16.5 536C16.5 536 25.3595 530.491 37.91 525.168C42.5086 522.235 47.4271 519.254 57.5 515.5C66.265 512.233 77.6183 509.634 87.9878 507.702C78.8841 509.164 69.0596 510.852 61 512.5C38.7288 517.053 18.5 526.5 18.5 526.5C18.5 526.5 36.5884 516.542 57.5 511.5C80.1344 506.043 116 500 116 500C116 500 81.6735 502.63 60 506.5C38.0412 510.421 18.5 520 18.5 520C18.5 520 36.4879 509.605 57.5 505C78.3531 500.43 111.5 496.5 111.5 496.5L62 501.5C62 501.5 43.5324 503.658 32 506.5C18.5698 509.809 12.5 518 12.5 518C12.5 518 17.8981 508.899 31 505C42.8557 501.472 62 498.5 62 498.5L111.5 491.5C111.5 491.5 76.656 491.641 54.5 494C32.4429 496.349 12.5 503.5 12.5 503.5C12.5 503.5 32.3685 494.729 54.5 491.5C76.5952 488.276 111.5 487 111.5 487L60 487.5C60 487.5 50.3958 486.42 35.5 488.5C22.376 490.332 2.52441 496.5 2.52441 496.5C2.52441 496.5 21.6932 489.384 34.5 487C48.7379 484.35 57.5 484.5 57.5 484.5H110C110 484.5 90.2159 482.589 77.5 482C58.1898 481.105 28 482 28 482C28 482 55.0954 479.694 72.5 479.5C87.149 479.336 110 480.5 110 480.5C110 480.5 78.0359 477.442 57.5 477.5C33.4186 477.568 10 482 10 482C10 482 31.5339 476.463 54.5 475.5C79.0938 474.469 117.5 477.5 117.5 477.5L0.5 467L114.5 472.5L37.5 464L114.5 467L10 454.5L123.5 464.5L16 444L129 460L21.5 433L135.5 457L16 423.5L130.5 451.5L29.5 419L131.976 447.5L31.5244 413.5L130.5 442.5L64.5 420.5L130.5 438.5L78 420.5L135.5 438.5L37.5 402L142.5 438.5L55 402L141 431.5L37.5 388.5L142.5 426L49.5 383L152 422L58.5 376L156 416.5L63 373L156 412C156 412 123.844 397.638 103 389C78.7811 378.964 69.5 371.5 69.5 371.5C69.5 371.5 78.6442 376.837 103 385C125.892 392.672 161.5 405 161.5 405L106.5 379L161.5 396C161.5 396 145.753 389.925 135.5 386.5C119.32 381.095 93.5 374.5 93.5 374.5C93.5 374.5 117.127 377.928 131.976 381.5C142.442 384.017 158.5 389 158.5 389C158.5 389 170.623 385.133 175 379C180.909 370.722 176.5 353 176.5 353C176.5 353 178.569 370.345 171.976 377.5C166.699 383.226 153.5 385 153.5 385C153.5 385 165.398 380.747 169.5 374.5C174.139 367.435 169.47 361.072 171.976 353C175.142 342.798 185.976 329.5 185.976 329.5C185.976 329.5 180.067 336.402 176.5 341C168.831 350.885 164.5 374.5 164.5 374.5C164.5 374.5 167.92 351.141 174.5 341C181.901 329.593 194.5 312.5 194.5 312.5C194.5 312.5 188.266 320.01 184.5 325C179.341 331.835 171.976 343 171.976 343C171.976 343 179.274 329.392 184.5 321C190.512 311.345 201 297 201 297L180 325L202 285.5C202 285.5 194.831 294.831 190.5 301C184.089 310.131 175 325 175 325C175 325 184.558 306.467 190.5 294.5C194.655 286.131 201 273 201 273C201 273 194.6 284.674 189 291C183.68 297.011 173.5 318.5 173.5 318.5C173.5 318.5 182.544 294.214 187.5 287C193.589 278.136 201 263 201 263C201 263 193.312 274.118 187.5 280.5C181.079 287.55 169.5 312.5 169.5 312.5C169.5 312.5 180.364 286.38 185.976 278.5C189.689 273.286 191.602 270.208 194.5 264.5C199.644 254.369 204 237 204 237C204 237 198.123 249.487 193.5 257C187.503 266.745 175 293 175 293C175 293 186.02 263.423 191.5 252C197.975 238.501 205.976 216.5 205.976 216.5C205.976 216.5 197.638 233.23 191.5 243.5C184.999 254.378 174.5 285.5 174.5 285.5C174.5 285.5 184.207 254.043 189 242.5C192.078 235.087 195.5 223 195.5 223C195.5 223 190.115 232.955 187 239.5C180.938 252.236 173.5 273 173.5 273C173.5 273 181.582 248.875 187 233.5C191.208 221.558 198 203 198 203C198 203 190.771 214.923 187 223C181.905 233.914 176.5 252 176.5 252C176.5 252 181.4 232.504 185.976 220.5C190.581 208.419 199.975 190.5 199.975 190.5C199.975 190.5 194.019 200.148 190.5 206.5C184.491 217.347 176 241.5 176 241.5C176 241.5 182.692 219.067 187 209C191.811 197.757 199.975 180.5 199.975 180.5L180 220.5C180 220.5 193.005 194.222 198 178C200.314 170.487 203 158.5 203 158.5C203 158.5 200.219 167.738 198 173.5C194.106 183.61 184 207.5 184 207.5C184 207.5 195.381 179.591 198 166.5C199.921 156.897 199.975 141.5 199.975 141.5V97.5L199 44.5L197.5 42L199.185 42.7188L197.5 40.1562L199.5 41.5L197 39L199 40L197.5 38.5L200 40L197 38L200 39.5L197 37.6875L199 38.5L197.5 37L199 38L197 36L199 37.5L196.5 35L199 37L197 34.5L199 36L196.5 33L199 35L196.5 32L199 34L196.5 30.5L199 33L197 29.6387L199.5 32.5L198 29L200.5 31.5L199.185 29.6387L201 31L199.5 29L201.5 31L200 29L202 30.5L201 29L203 31L202 29L204 31.5L203 29.5L205 32.5L204 30.5L206 33.5L205 31.5L207 34.5L206.5 33L208 35.5L207.5 34L208.5 35.5V34L209.5 36.5V35L211 37.5C211 37.5 213.701 39.986 215.5 41.5C219.235 44.6434 221.362 46.2445 225 49.5C229.326 53.3717 235.5 60 235.5 60C235.5 60 236.873 61.3348 238 61.5C238.985 61.6445 240.5 61 240.5 61C240.5 61 251.687 57.3242 259 55.5C266.728 53.5722 279 51.5 279 51.5C279 51.5 281.127 51.3732 282 50.5C282.873 49.6268 283 47.5 283 47.5L286 31.5L287 20L286.5 15.5L287.5 16.5L287 12.5L288 13.5L287.5 10.5L288 11.5L287.5 9L288.5 10L288 8L289 9L288 7L289 8L288.5 5.5L289.5 7L289 5L290.5 6L290 4L290.975 5L290.5 3L291.5 4.5L290 0.5L292 4V1L293 3.5L292.5 0L293.5 3L293 0.5L294.5 3L294 0.5L295.5 3.5L295 1.5L296 4V1.5L297 5V2L298 6V3.5L299 7.5V5L300 9.5V7L301 12V9.5L302 13.5V11L303.312 15.5L303 12.5L304 16.5V14.5L305 18V16.5L306 19.5L319.975 39.5Z" fill="url(#paint0_radial_614_416)"/>
<defs>
<radialGradient id="paint0_radial_614_416" cx="0" cy="0" r="1" gradientUnits="userSpaceOnUse" gradientTransform="translate(358 328) rotate(143.019) scale(309.2 310.92)">
<stop stop-color="#7A6453"/>
<stop offset="0.260417" stop-color="#79604E"/>
<stop offset="0.421875" stop-color="#705A4A"/>
<stop offset="0.59375" stop-color="#625042"/>
<stop offset="0.796875" stop-color="#433830"/>
<stop offset="1" stop-color="#0C0A08"/>
</radialGradient>
</defs>
</svg>
